<svg xmlns="http://www.w3.org/2000/svg" xmlns:xlink="http://www.w3.org/1999/xlink" width="214.734" height="39.746" viewBox="0 0 214.734 39.746">
  <defs>
    <clipPath id="clip-path">
      <rect id="Rectangle_1147" data-name="Rectangle 1147" width="214.734" height="39.745" fill="none"/>
    </clipPath>
  </defs>
  <g id="logo" transform="translate(-32 -22)">
    <g id="Group_660" data-name="Group 660" transform="translate(32 22)">
      <path id="Path_4830" data-name="Path 4830" d="M57.723,19.781v.96h4.269V28.4h1.064V20.741h4.266v-.96Z" transform="translate(33.115 11.348)"/>
      <g id="Group_664" data-name="Group 664" transform="translate(0 0)">
        <g id="Group_663" data-name="Group 663" clip-path="url(#clip-path)">
          <path id="Path_4831" data-name="Path 4831" d="M67.715,28.4V19.781h6.152c2.428,0,3.388.3,3.388,2.051v1.032c0,1.018-.334,1.468-1.515,1.718a1.489,1.489,0,0,1,1.423,1.681V28.4H76.093v-1.92c0-1.35-.6-1.459-2.087-1.459H68.782V28.4Zm1.067-7.68v3.306h5.426c1.531,0,1.918-.272,1.918-1.445v-.415c0-1.174-.387-1.446-1.918-1.446Z" transform="translate(38.847 11.348)"/>
          <path id="Path_4832" data-name="Path 4832" d="M82.068,19.781h1.421L88.5,28.4H87.362l-1.12-1.9H79.388l-1.1,1.9h-1.22Zm3.649,5.808-2.925-4.954-2.88,4.954Z" transform="translate(44.212 11.348)"/>
          <path id="Path_4833" data-name="Path 4833" d="M86.323,19.781h1.205l4.244,7.706,4.266-7.706H97.26L92.472,28.4H91.108Z" transform="translate(49.522 11.348)"/>
          <path id="Path_4834" data-name="Path 4834" d="M96.6,19.781h8.487v.962H97.644v2.7h7.132v.96H97.644v3.032h7.442V28.4H96.6Z" transform="translate(55.418 11.348)"/>
          <path id="Path_4835" data-name="Path 4835" d="M105.687,19.781h1.067v7.669h6.7V28.4h-7.763Z" transform="translate(60.631 11.348)"/>
          <path id="Path_4836" data-name="Path 4836" d="M37.328,7.031h-9.42L26.942,0H14.491l-.966,7.031H4.1A3.842,3.842,0,0,0,.271,10.863V33.617L41.163,17.529V10.863a3.844,3.844,0,0,0-3.835-3.832m-22.379-4.1H26.485l.563,4.1H14.384Z" transform="translate(0.155 0)" fill="#804f21"/>
          <path id="Path_4837" data-name="Path 4837" d="M.754,9.833c-.412.412-.754.272-.754-.31V5.26A1.068,1.068,0,0,1,1.067,4.2H5.325c.587,0,.725.338.312.752Z" transform="translate(0 2.407)" fill="#ba9d7d"/>
          <path id="Path_4838" data-name="Path 4838" d="M23.03,4.947c-.412-.412-.274-.752.312-.752H27.6A1.067,1.067,0,0,1,28.666,5.26V9.522c0,.584-.337.724-.752.31Z" transform="translate(13.076 2.407)" fill="#ba9d7d"/>
          <rect id="Rectangle_1144" data-name="Rectangle 1144" width="0.751" height="1.065" transform="translate(4.31 29.499)" fill="#ba9d7d"/>
          <path id="Path_4839" data-name="Path 4839" d="M3.49,22.4H2.739V20.49H3.49Zm0-3.808H2.739V16.681H3.49Zm0-3.81H2.739V12.871H3.49Zm0-3.81H2.739V9.06H3.49Z" transform="translate(1.571 5.198)" fill="#ba9d7d"/>
          <path id="Path_4840" data-name="Path 4840" d="M3.489,8.374H2.739V6.934H4.182v.754H3.489Z" transform="translate(1.571 3.978)" fill="#ba9d7d"/>
          <path id="Path_4841" data-name="Path 4841" d="M31.144,7.688H29.127V6.934h2.017Zm-4.033,0H25.1V6.934h2.014Zm-4.03,0H21.065V6.934h2.016Zm-4.032,0H17.033V6.934h2.016Zm-4.033,0H13V6.934h2.016Zm-4.032,0H8.969V6.934h2.014Zm-4.032,0H4.936V6.934H6.952Z" transform="translate(2.832 3.978)" fill="#ba9d7d"/>
          <path id="Path_4842" data-name="Path 4842" d="M24.313,8.374h-.751V7.688H22.87V6.934h1.443Z" transform="translate(13.12 3.978)" fill="#ba9d7d"/>
          <rect id="Rectangle_1145" data-name="Rectangle 1145" width="0.751" height="1.678" transform="translate(36.683 14.029)" fill="#ba9d7d"/>
          <rect id="Rectangle_1146" data-name="Rectangle 1146" width="0.751" height="1.064" transform="translate(36.683 17.383)" fill="#ba9d7d"/>
          <path id="Path_4843" data-name="Path 4843" d="M40.929,21.749V6.259H32.3V4.317H51.719V6.259H43.088v15.49Z" transform="translate(18.529 2.477)"/>
          <path id="Path_4844" data-name="Path 4844" d="M57.562,4.318h2.877l10.139,17.43h-2.3L66,17.912H52.14l-2.231,3.837H47.443Zm7.384,11.749L59.024,6.044,53.2,16.067Z" transform="translate(27.217 2.477)"/>
          <path id="Path_4845" data-name="Path 4845" d="M85.97,15.858v-.888H77.026V13.026H88.151v2.833c0,2.277,0,3.907-1.39,5.085-1.152.98-3.117,1.1-6.065,1.1H74.46c-2.734,0-4.627-.143-5.925-1.246-1.246-1.054-1.651-2.686-1.651-5.154V10.893c0-2.685.4-4.435,1.651-5.492s3.119-1.221,5.9-1.221H80.7c5.273,0,7.288.91,7.288,4.916,0,.286,0,.6-.024.936H85.97V9.768c0-2.784-1.1-3.671-4.077-3.671H73.574c-1.873,0-3.025.266-3.741,1.275-.6.837-.625,1.915-.625,3.379v4.627c0,1.464.024,2.543.625,3.383.694.982,1.868,1.27,3.741,1.27h8.248c3.523,0,4.148-.889,4.148-4.172" transform="translate(38.371 2.398)"/>
          <path id="Path_4846" data-name="Path 4846" d="M105.761,15.858v-.888H96.817V13.026h11.126v2.833c0,2.277,0,3.907-1.391,5.085-1.149.98-3.117,1.1-6.067,1.1H94.252c-2.732,0-4.63-.143-5.923-1.246-1.245-1.054-1.654-2.686-1.654-5.154V10.893c0-2.685.409-4.435,1.654-5.492s3.119-1.221,5.9-1.221h6.257c5.275,0,7.291.91,7.291,4.916,0,.286,0,.6-.024.936h-1.992V9.768c0-2.784-1.1-3.671-4.076-3.671h-8.32c-1.871,0-3.02.266-3.742,1.275-.6.837-.622,1.915-.622,3.379v4.627c0,1.464.024,2.543.622,3.383.7.982,1.871,1.27,3.742,1.27h8.249c3.523,0,4.147-.889,4.147-4.172" transform="translate(49.724 2.398)"/>
          <path id="Path_4847" data-name="Path 4847" d="M107.092,4.317h17.167V6.259H109.2v5.469h14.435V13.67H109.2v6.137h15.057v1.942H107.092Z" transform="translate(61.437 2.477)"/>
          <path id="Path_4848" data-name="Path 4848" d="M124.187,21.749V4.317H136.63c4.916,0,6.86.6,6.86,4.148V10.55c0,2.065-.674,2.973-3.067,3.476,1.892.217,2.872,1.369,2.872,3.407v4.315h-2.156V17.865c0-2.732-1.226-2.949-4.217-2.949H126.345v6.833Zm2.158-15.537V12.9h10.984c3.094,0,3.882-.552,3.882-2.927V9.136c0-2.373-.788-2.924-3.882-2.924Z" transform="translate(71.245 2.477)"/>
        </g>
      </g>
    </g>
  </g>
</svg>
